<svg xmlns="http://www.w3.org/2000/svg" xmlns:xlink="http://www.w3.org/1999/xlink" width="1000" height="1000" viewBox="0 0 1000 1000" xml:space="preserve"><desc>Created with Fabric.js 3.5.0</desc><defs></defs><rect x="0" y="0" width="100%" height="100%" fill="#ffffff"></rect><g transform="matrix(3.5511 0 0 3.5511 499.9953 499.9953)" id="373813"><g style="">		<g transform="matrix(2.8008 0 0 2.8008 0 -42.582)"><path style="stroke: none; stroke-width: 1; stroke-dasharray: none; stroke-linecap: butt; stroke-dashoffset: 0; stroke-linejoin: miter; stroke-miterlimit: 10; is-custom-font: none; font-file-url: none; fill: rgb(255,118,33); fill-rule: nonzero; opacity: 1;" transform=" translate(-45, -29.7965)" d="M 58.33 58.799 L 15.998 16.466 c -1.059 -1.059 -1.059 -2.776 0 -3.835 L 27.834 0.794 c 1.059 -1.059 2.776 -1.059 3.835 0 l 42.333 42.333 c 1.059 1.059 1.059 2.776 0 3.835 L 62.166 58.799 C 61.107 59.858 59.39 59.858 58.33 58.799 z" stroke-linecap="round"></path></g>		<g transform="matrix(2.8008 0 0 2.8008 0.0014 42.5819)"><path style="stroke: none; stroke-width: 1; stroke-dasharray: none; stroke-linecap: butt; stroke-dashoffset: 0; stroke-linejoin: miter; stroke-miterlimit: 10; is-custom-font: none; font-file-url: none; fill: rgb(255,118,33); fill-rule: nonzero; opacity: 1;" transform=" translate(-45.0005, -60.2035)" d="M 58.33 31.201 L 15.998 73.534 c -1.059 1.059 -1.059 2.776 0 3.835 l 11.837 11.837 c 1.059 1.059 2.776 1.059 3.835 0 l 42.333 -42.333 c 1.059 -1.059 1.059 -2.776 0 -3.835 L 62.166 31.201 C 61.107 30.142 59.39 30.142 58.33 31.201 z" stroke-linecap="round"></path></g></g></g></svg>